<svg id="Layer_1" data-name="Layer 1" xmlns="http://www.w3.org/2000/svg" viewBox="0 0 283.41 74.31"><path d="M178,267.79H318.68c1.13,0,1-.15,1,1q0,10.53,0,21.05c0,.91,0,.91-.94.91H37.19c-.72,0-.92-.15-.92-.89,0-7,0-14.08,0-21.12,0-1.06-.14-.92,1-.92Z" transform="translate(-36.27 -216.42)" style="fill:#f6ec18"/><path d="M75.43,217.15l-1.86,2.69Q68.35,227.41,63.13,235c-.18.28-.36.47-.11.86q6.49,9.84,12.94,19.69l.12.13a5.62,5.62,0,0,0,.6-1.35Q84,236,91.22,217.7a.74.74,0,0,1,.82-.56c4.25,0,8.51,0,12.77,0,.4,0,.65.07.81.48q7.65,18.91,15.31,37.81c0,.09.06.18.12.36h-.63c-4.09,0-8.18,0-12.28,0-.47,0-.69-.1-.83-.59-.52-1.8-1.1-3.57-1.64-5.36-.11-.36-.25-.53-.68-.53q-6.75,0-13.49,0c-.44,0-.57.19-.67.53-.57,1.81-1.16,3.6-1.7,5.42-.13.44-.32.53-.74.53q-13.2,0-26.41,0a.91.91,0,0,1-.89-.52c-2.84-4.6-5.71-9.18-8.54-13.79a1.36,1.36,0,0,0-1.47-.79,12,12,0,0,1-2,0c-.56,0-.72.12-.71.69,0,4.54,0,9.09,0,13.63,0,.6-.1.8-.76.79-3.57,0-7.14,0-10.71,0-.52,0-.67-.1-.67-.65q0-18.66,0-37.31c0-.58.16-.71.71-.7,3.55,0,7.09,0,10.64,0,.6,0,.8.12.79.77,0,4.33,0,8.66,0,13,0,.65.19.8.8.76a17.77,17.77,0,0,1,2.42,0,1,1,0,0,0,1-.54c2.85-4.46,5.73-8.9,8.57-13.36a1.19,1.19,0,0,1,1.14-.62c4.09,0,8.19,0,12.28,0Zm23,9.08a2.73,2.73,0,0,0-.18.24c-1.25,4.48-2.77,8.88-4.18,13.31-.14.46-.08.56.4.55,2.49,0,5,0,7.48,0,.63,0,.76-.11.56-.72-1-3-1.89-5.94-2.81-8.92C99.26,229.25,98.87,227.78,98.43,226.23Z" transform="translate(-36.27 -216.42)" style="fill:#040404"/><path d="M162.65,255.79c-4.7,0-9.27,0-13.84,0-.45,0-.55-.27-.7-.56q-3-5.77-5.92-11.56a1,1,0,0,0-1-.62c-1.21.05-2.42.05-3.63,0-.51,0-.63.12-.62.62,0,3.8,0,7.61,0,11.41,0,.57-.15.7-.7.69q-5.4,0-10.78,0c-.54,0-.66-.14-.66-.67q0-18.64,0-37.3c0-.57.16-.71.71-.7,5.64,0,11.28,0,16.92,0a28.06,28.06,0,0,1,8.77,1.23c5.73,1.89,8.59,6,8.34,12.07a11.73,11.73,0,0,1-3.28,8.11,8.18,8.18,0,0,1-2.74,1.88c-.6.24-.71.41-.32,1,2.71,4.06,5.38,8.15,8.07,12.24ZM136.92,230.6c0,1.26,0,2.52,0,3.78,0,.44.07.63.57.6.76,0,1.52,0,2.28,0a28.46,28.46,0,0,0,4.13-.13,3.13,3.13,0,0,0,2.88-2.79,9.18,9.18,0,0,0,0-2.77,2.92,2.92,0,0,0-2.79-2.89,59.62,59.62,0,0,0-6.55-.16c-.5,0-.58.16-.57.6C136.93,228.08,136.92,229.34,136.92,230.6Z" transform="translate(-36.27 -216.42)" style="fill:#040404"/><path d="M319.23,255.1q-4.51-6.87-9-13.73c-.26-.41-.41-.62.22-.87a9.09,9.09,0,0,0,4.22-3.58,12.79,12.79,0,0,0,1.93-7.74c-.2-4.61-2.22-8.06-6.48-10.06a25.1,25.1,0,0,0-10.62-2c-5.64,0-11.28,0-16.91,0-.58,0-.7.17-.7.71q0,18.66,0,37.31c0,.53.12.66.66.66,3.54,0,7.09,0,10.63,0,.63,0,.84-.12.83-.8,0-3.78,0-7.56,0-11.34,0-.46.1-.61.58-.59,1.24,0,2.48,0,3.71,0a.88.88,0,0,1,1,.58c2,3.87,4,7.72,5.94,11.57.15.28.22.58.68.57,4.57,0,9.14,0,13.84,0C319.47,255.49,319.36,255.29,319.23,255.1Zm-15.48-22.86a3.06,3.06,0,0,1-2.81,2.59,36.35,36.35,0,0,1-4.78.13c-.7,0-1.66.25-2.06-.11s-.12-1.38-.14-2.1,0-1.48,0-2.22v-3.85c0-.24,0-.47.34-.46a60,60,0,0,1,6.84.17,2.92,2.92,0,0,1,2.74,3A9.67,9.67,0,0,1,303.75,232.24Z" transform="translate(-36.27 -216.42)" style="fill:#040404"/><path d="M200.37,236.48c0-6.19,0-12.37,0-18.55,0-.6.11-.81.77-.8,3.55,0,7.09,0,10.64,0,.62,0,.72.19.72.76,0,4.28,0,8.56,0,12.84,0,.57.15.69.7.69,3.81,0,7.61,0,11.42,0,.52,0,.67-.11.67-.66,0-4.3,0-8.6,0-12.91,0-.55.12-.72.7-.72q5.35,0,10.71,0c.52,0,.69.1.69.66q0,18.67,0,37.37c0,.5-.12.64-.63.63q-5.42,0-10.85,0c-.51,0-.62-.15-.62-.63,0-4.4,0-8.8,0-13.2,0-.57-.16-.71-.72-.7q-5.7,0-11.42,0c-.55,0-.65.16-.65.67,0,4.4,0,8.8,0,13.2,0,.52-.11.67-.66.67q-5.38,0-10.77,0c-.59,0-.7-.18-.69-.72Q200.38,245.79,200.37,236.48Z" transform="translate(-36.27 -216.42)" style="fill:#060606"/><path d="M244.47,236.48c0-6.21,0-12.42,0-18.62,0-.54.1-.73.69-.73q14.79,0,29.56,0c.53,0,.69.13.69.66,0,2.81.1,5.61.18,8.42,0,.51-.13.62-.63.62-5.9,0-11.8,0-17.7,0-.58,0-.7.17-.68.7,0,1.24,0,2.48,0,3.71,0,.58.1.75.72.75,4.76,0,9.52,0,14.27,0,.59,0,.75.13.74.73,0,2.28,0,4.57,0,6.85,0,.68-.1.91-.86.9-4.71,0-9.42,0-14.13,0-.59,0-.77.14-.75.74.05,1.42.06,2.85,0,4.28,0,.66.11.86.83.86,6.07,0,12.13,0,18.2,0,.58,0,.75.1.73.72-.09,2.76-.13,5.52-.16,8.28,0,.46-.13.58-.6.58q-15.24,0-30.48,0c-.51,0-.62-.14-.62-.63C244.48,248.94,244.47,242.71,244.47,236.48Z" transform="translate(-36.27 -216.42)" style="fill:#040404"/><path d="M163,236.57a24.84,24.84,0,0,1,1.7-9.6c2.21-5.17,6.23-8.18,11.57-9.55a34.49,34.49,0,0,1,18,.41.67.67,0,0,1,.58.88c-.32,2.43-.61,4.86-.94,7.28-.06.48.11,1.19-.29,1.4s-.93-.17-1.41-.27a31.24,31.24,0,0,0-10.34-.6c-3.19.4-5,1.89-5.61,5a24.1,24.1,0,0,0,.09,10.25c.68,3,2.64,4.52,5.75,4.86a24,24,0,0,0,11.15-1.26c.41-.16.52,0,.57.36.38,2.62.76,5.25,1.16,7.88.06.42-.11.57-.46.72a30.28,30.28,0,0,1-18.79,1.17c-6.88-1.92-10.76-6.55-12.14-13.44A33.23,33.23,0,0,1,163,236.57Z" transform="translate(-36.27 -216.42)" style="fill:#050404"/><path d="M81.62,225.39c-1.31,0-2.61,0-3.92,0-.44,0-.56-.13-.56-.56,0-2.38,0-4.75,0-7.13,0-.48.16-.58.61-.58,2.62,0,5.23,0,7.85,0,.48,0,.59.15.59.6q0,3.53,0,7.06c0,.52-.17.62-.65.61C84.24,225.37,82.93,225.39,81.62,225.39Z" transform="translate(-36.27 -216.42)" style="fill:#111010"/><path d="M115.26,225.39c-1.3,0-2.61,0-3.92,0-.39,0-.59,0-.58-.53,0-2.4,0-4.79,0-7.19,0-.45.14-.55.57-.55,2.64,0,5.27,0,7.91,0,.45,0,.56.14.55.57,0,2.37,0,4.75,0,7.12,0,.49-.17.59-.61.58C117.88,225.37,116.57,225.39,115.26,225.39Z" transform="translate(-36.27 -216.42)" style="fill:#090808"/></svg>